# Blender v2.80 (sub 75) OBJ File: ''
# www.blender.org
o Cube
v 1.170058 1.561804 0.113620
v 1.170058 -0.438196 0.113620
v 1.170058 1.561804 2.113620
v 1.170058 -0.438196 2.113620
v -0.829941 1.561804 0.113620
v -0.829941 -0.438196 0.113620
v -0.829941 1.561804 0.940997
v -0.829941 -0.438196 0.993935
vt 0.000000 0.000000
vt 1.000000 1.000000
vt 0.000000 1.000000
vt 1.000000 0.000000
vt 0.000000 1.000000
vt 0.000000 0.000000
vt 1.000000 0.000000
vt 0.000000 1.000000
vt 0.000000 0.000000
vt 1.000000 0.000000
vt 0.000000 0.000000
vt 1.000000 0.000000
vt 0.000000 1.000000
vt 0.000000 0.000000
vt 1.000000 0.000000
vt 0.000000 1.000000
vt 1.000000 1.000000
vt 1.000000 1.000000
vt 1.000000 1.000000
vt 1.000000 1.000000
vn 0.0000 1.0000 0.0000
vn -0.4885 0.0000 0.8726
vn -1.0000 0.0000 0.0000
vn 0.0000 -1.0000 0.0000
vn 1.0000 0.0000 0.0000
vn 0.0000 0.0000 -1.0000
vn -0.5057 0.0228 0.8624
s off
f 1/1/1 7/2/1 3/3/1
f 3/4/2 8/5/2 4/6/2
f 7/7/3 6/8/3 8/9/3
f 2/10/4 8/5/4 6/11/4
f 1/12/5 4/13/5 2/14/5
f 5/15/6 2/16/6 6/11/6
f 1/1/1 5/15/1 7/2/1
f 3/4/7 7/2/7 8/5/7
f 7/7/3 5/17/3 6/8/3
f 2/10/4 4/18/4 8/5/4
f 1/12/5 3/19/5 4/13/5
f 5/15/6 1/20/6 2/16/6
o Cube.001
v 2.924380 1.561804 -2.013505
v 2.924380 -0.438196 -2.013505
v 2.924380 1.561804 -1.400286
v 2.924380 -0.438196 -1.400286
v 0.924380 1.561804 -2.013505
v 0.924380 -0.438196 -2.013505
v 0.924380 1.561804 -1.186129
v 0.924380 -0.438196 -1.133191
vt 1.000000 0.000000
vt 0.000000 1.000000
vt 0.000000 0.000000
vt 0.000000 0.000000
vt 1.000000 1.000000
vt 0.000000 1.000000
vt 1.000000 0.000000
vt 0.000000 1.000000
vt 0.000000 0.000000
vt 0.000000 0.000000
vt 1.000000 1.000000
vt 1.000000 0.000000
vt 0.000000 1.000000
vt 0.000000 0.000000
vt 0.000000 1.000000
vt 1.000000 0.000000
vt 1.000000 1.000000
vt 1.000000 0.000000
vt 1.000000 1.000000
vt 1.000000 1.000000
vn 0.0000 1.0000 0.0000
vn 0.1323 0.0262 0.9909
vn -1.0000 0.0000 0.0000
vn 0.0000 -1.0000 0.0000
vn 1.0000 0.0000 0.0000
vn 0.0000 0.0000 -1.0000
vn 0.1065 0.0000 0.9943
s off
f 13/21/8 11/22/8 9/23/8
f 12/24/9 15/25/9 16/26/9
f 15/27/10 14/28/10 16/29/10
f 14/30/11 12/31/11 16/26/11
f 9/32/12 12/33/12 10/34/12
f 13/21/13 10/35/13 14/30/13
f 13/21/8 15/25/8 11/22/8
f 12/24/14 11/36/14 15/25/14
f 15/27/10 13/37/10 14/28/10
f 14/30/11 10/38/11 12/31/11
f 9/32/12 11/39/12 12/33/12
f 13/21/13 9/40/13 10/35/13
o Cube.002
v -0.441567 1.561804 -2.139135
v -0.441567 -0.438196 -2.139135
v 0.067458 1.561804 -1.797182
v -1.556837 1.561804 -0.478963
v -1.556837 -0.438196 -0.478963
v -0.600868 1.561804 -0.825114
v -0.826100 -0.438196 0.011932
vt 0.000000 0.000000
vt 1.000000 1.000000
vt 0.000000 1.000000
vt 0.000000 0.000000
vt 1.000000 0.000000
vt 1.000000 1.000000
vt 0.000000 0.000000
vt 1.000000 1.000000
vt 0.000000 1.000000
vt 0.000000 0.000000
vt 1.000000 0.000000
vt 1.000000 1.000000
vt 0.000000 0.000000
vt 1.000000 0.000000
vt 0.000000 1.000000
vt 1.000000 0.000000
vt 1.000000 1.000000
vt 1.000000 0.000000
vt 1.000000 1.000000
vn 0.0000 1.0000 0.0000
vn 0.5576 0.0000 -0.8301
vn -0.5576 0.0000 0.8301
vn 0.0000 -1.0000 0.0000
vn 0.7878 -0.2931 0.5417
vn -0.8301 0.0000 -0.5576
vn 0.9837 -0.0372 0.1759
vn 0.3208 0.3347 0.8860
s off
f 17/41/15 22/42/15 19/43/15
f 18/44/16 17/45/16 19/46/16
f 23/47/17 20/48/17 21/49/17
f 21/50/18 18/51/18 23/52/18
f 22/53/19 18/51/19 19/46/19
f 20/54/20 18/55/20 21/50/20
f 22/53/21 23/56/21 18/57/21
f 17/41/15 20/54/15 22/42/15
f 23/47/22 22/58/22 20/48/22
f 20/54/20 17/59/20 18/55/20
